<svg xmlns="http://www.w3.org/2000/svg" xmlns:xlink="http://www.w3.org/1999/xlink" width="2000" zoomAndPan="magnify" viewBox="0 0 1500 1499.999933" height="2000" preserveAspectRatio="xMidYMid meet" version="1.0"><defs><g/><clipPath id="c2a72f06b4"><path d="M 315.332031 596.730469 L 570 596.730469 L 570 903.480469 L 315.332031 903.480469 Z M 315.332031 596.730469 " clip-rule="nonzero"/></clipPath></defs><rect x="-150" width="1800" fill="#ffffff" y="-149.999993" height="1799.99992" fill-opacity="1"/><rect x="-150" width="1800" fill="#0e0e0e" y="-149.999993" height="1799.99992" fill-opacity="1"/><g clip-path="url(#c2a72f06b4)"><path fill="#cc001e" d="M 518.824219 903.234375 C 505.304688 903.234375 492.605469 897.964844 483.035156 888.410156 L 416.191406 821.5625 L 401.726562 836.027344 C 386.976562 850.777344 365.84375 854.988281 346.566406 846.996094 C 327.300781 839.019531 315.332031 821.109375 315.332031 800.25 L 315.332031 699.742188 C 315.332031 678.882812 327.300781 660.972656 346.582031 652.980469 C 365.84375 645.003906 386.992188 649.199219 401.742188 663.949219 L 416.203125 678.410156 L 483.050781 611.566406 C 492.589844 602.027344 505.304688 596.753906 518.824219 596.753906 C 539.683594 596.753906 557.59375 608.726562 565.585938 628.003906 C 573.5625 647.269531 569.367188 668.414062 554.617188 683.167969 L 487.773438 750.011719 L 554.617188 816.855469 C 569.367188 831.605469 573.578125 852.738281 565.585938 872.015625 C 557.59375 891.265625 539.683594 903.234375 518.824219 903.234375 Z M 435.390625 802.363281 L 502.234375 869.207031 C 506.671875 873.640625 512.550781 876.074219 518.824219 876.074219 C 528.640625 876.074219 536.738281 870.664062 540.488281 861.59375 C 544.242188 852.523438 542.34375 842.96875 535.398438 836.042969 L 468.554688 769.199219 Z M 366.207031 676.179688 C 363.15625 676.179688 360.023438 676.800781 356.957031 678.078125 C 347.886719 681.828125 342.480469 689.925781 342.480469 699.742188 L 342.480469 800.25 C 342.480469 810.0625 347.886719 818.160156 356.957031 821.914062 C 366.027344 825.667969 375.582031 823.765625 382.507812 816.824219 L 396.972656 802.363281 L 380.382812 785.773438 C 370.828125 776.214844 365.554688 763.5 365.554688 749.980469 C 365.554688 736.460938 370.828125 723.757812 380.382812 714.1875 L 396.972656 697.597656 L 382.507812 683.136719 C 377.9375 678.5625 372.195312 676.179688 366.207031 676.179688 Z M 432.777344 733.40625 C 423.617188 724.246094 408.777344 724.246094 399.617188 733.40625 C 395.179688 737.84375 392.75 743.722656 392.75 749.996094 C 392.75 756.253906 395.195312 762.148438 399.617188 766.585938 C 408.777344 775.746094 423.617188 775.746094 432.777344 766.585938 C 441.941406 757.425781 441.941406 742.566406 432.777344 733.40625 Z M 435.390625 697.613281 L 468.554688 730.777344 L 535.398438 663.933594 C 542.34375 656.992188 544.242188 647.433594 540.488281 638.382812 C 536.738281 629.3125 528.640625 623.902344 518.824219 623.902344 C 512.566406 623.902344 506.671875 626.347656 502.234375 630.769531 Z M 435.390625 697.613281 " fill-opacity="1" fill-rule="nonzero"/></g><g fill="#f0f4f5" fill-opacity="1"><g transform="translate(595.150638, 783.374913)"><g><path d="M 5.921875 0 L 5.921875 -82.875 L 21.90625 -82.875 L 54.21875 -40.375 L 86.65625 -82.875 L 102.296875 -82.875 L 102.296875 0 L 85.828125 0 L 85.828125 -46.046875 L 86.421875 -58.25 L 58.609375 -21.90625 L 49.484375 -21.90625 L 21.78125 -57.890625 L 22.375 -45.46875 L 22.375 0 Z M 5.921875 0 "/></g></g></g><g fill="#f0f4f5" fill-opacity="1"><g transform="translate(705.257486, 783.374913)"><g><path d="M 9.828125 25.578125 L 25.8125 -3.90625 L -3.4375 -56.109375 L -3.4375 -56.359375 L 13.859375 -56.359375 L 30.421875 -25.921875 L 33.984375 -16.9375 L 37.53125 -25.8125 L 53.875 -56.359375 L 70.671875 -56.359375 L 70.671875 -55.875 L 26.640625 25.578125 Z M 9.828125 25.578125 "/></g></g></g><g fill="#f0f4f5" fill-opacity="1"><g transform="translate(774.636634, 783.374913)"><g><path d="M 5.921875 0 L 5.921875 -82.875 L 22.25 -82.875 L 22.25 -40.25 L 38.234375 -57.1875 L 67.71875 -82.875 L 88.3125 -82.875 L 88.3125 -82.046875 L 47.359375 -45.109375 L 90.8125 -0.953125 L 90.8125 0 L 70.671875 0 L 35.75 -35.046875 L 22.25 -22.96875 L 22.25 0 Z M 5.921875 0 "/></g></g></g><g fill="#f0f4f5" fill-opacity="1"><g transform="translate(865.681987, 783.374913)"><g><path d="M 43.328125 2.015625 C 38.828125 2.015625 34.207031 1.617188 29.46875 0.828125 C 24.738281 0.0351562 20.28125 -1.320312 16.09375 -3.25 C 11.914062 -5.1875 8.425781 -7.953125 5.625 -11.546875 C 2.820312 -15.140625 1.144531 -19.695312 0.59375 -25.21875 L 16.9375 -27.234375 C 17.25 -24.078125 18.269531 -21.488281 20 -19.46875 C 21.738281 -17.457031 23.910156 -15.898438 26.515625 -14.796875 C 29.117188 -13.691406 31.878906 -12.921875 34.796875 -12.484375 C 37.722656 -12.054688 40.488281 -11.84375 43.09375 -11.84375 C 44.675781 -11.84375 46.769531 -11.976562 49.375 -12.25 C 51.976562 -12.53125 54.597656 -13.0625 57.234375 -13.84375 C 59.878906 -14.632812 62.148438 -15.78125 64.046875 -17.28125 C 65.941406 -18.78125 67.007812 -20.71875 67.25 -23.09375 C 67.476562 -25.851562 66.898438 -28.019531 65.515625 -29.59375 C 64.140625 -31.175781 62.269531 -32.359375 59.90625 -33.140625 C 57.539062 -33.929688 54.914062 -34.484375 52.03125 -34.796875 C 49.15625 -35.117188 46.296875 -35.320312 43.453125 -35.40625 L 37.890625 -35.640625 C 34.015625 -35.796875 29.96875 -36.148438 25.75 -36.703125 C 21.53125 -37.253906 17.601562 -38.28125 13.96875 -39.78125 C 10.34375 -41.28125 7.382812 -43.507812 5.09375 -46.46875 C 2.800781 -49.425781 1.65625 -53.390625 1.65625 -58.359375 C 1.65625 -62.703125 2.519531 -66.410156 4.25 -69.484375 C 5.988281 -72.566406 8.316406 -75.09375 11.234375 -77.0625 C 14.160156 -79.039062 17.421875 -80.582031 21.015625 -81.6875 C 24.609375 -82.789062 28.273438 -83.5625 32.015625 -84 C 35.765625 -84.4375 39.335938 -84.65625 42.734375 -84.65625 C 46.992188 -84.65625 51.351562 -84.335938 55.8125 -83.703125 C 60.28125 -83.066406 64.40625 -81.898438 68.1875 -80.203125 C 71.976562 -78.515625 75.097656 -76.03125 77.546875 -72.75 C 79.992188 -69.476562 81.375 -65.238281 81.6875 -60.03125 L 65.359375 -58.359375 C 65.117188 -61.046875 64.1875 -63.253906 62.5625 -64.984375 C 60.945312 -66.722656 58.953125 -68.066406 56.578125 -69.015625 C 54.210938 -69.960938 51.769531 -70.613281 49.25 -70.96875 C 46.726562 -71.332031 44.441406 -71.515625 42.390625 -71.515625 C 40.960938 -71.515625 38.945312 -71.375 36.34375 -71.09375 C 33.738281 -70.8125 31.070312 -70.253906 28.34375 -69.421875 C 25.625 -68.597656 23.316406 -67.335938 21.421875 -65.640625 C 19.535156 -63.953125 18.59375 -61.644531 18.59375 -58.71875 C 18.59375 -55.957031 19.519531 -53.90625 21.375 -52.5625 C 23.226562 -51.21875 25.632812 -50.304688 28.59375 -49.828125 C 31.550781 -49.359375 34.726562 -49.046875 38.125 -48.890625 C 43.800781 -48.816406 49.382812 -48.484375 54.875 -47.890625 C 60.363281 -47.296875 65.316406 -46.1875 69.734375 -44.5625 C 74.148438 -42.945312 77.660156 -40.5625 80.265625 -37.40625 C 82.867188 -34.25 84.171875 -30.066406 84.171875 -24.859375 C 84.171875 -20.046875 82.890625 -15.863281 80.328125 -12.3125 C 77.765625 -8.757812 74.410156 -5.878906 70.265625 -3.671875 C 66.117188 -1.460938 61.679688 0.078125 56.953125 0.953125 C 53.160156 1.660156 48.617188 2.015625 43.328125 2.015625 Z M 43.328125 2.015625 "/></g></g></g><g fill="#f0f4f5" fill-opacity="1"><g transform="translate(954.24103, 783.374913)"><g><path d="M 34.8125 1.0625 C 26.832031 0.988281 20.734375 -1.351562 16.515625 -5.96875 C 12.296875 -10.59375 10.1875 -16.492188 10.1875 -23.671875 L 10.1875 -44.875 L -0.234375 -44.875 L -0.234375 -56.359375 L 10.1875 -56.359375 L 10.1875 -82.875 L 25.21875 -82.875 L 25.21875 -56.359375 L 45.34375 -56.359375 L 45.34375 -44.875 L 25.21875 -44.875 L 25.21875 -23.671875 C 25.132812 -20.285156 26.195312 -17.46875 28.40625 -15.21875 C 30.625 -12.96875 33.425781 -11.84375 36.8125 -11.84375 C 38 -11.84375 39.242188 -12 40.546875 -12.3125 C 41.847656 -12.625 43.171875 -13.140625 44.515625 -13.859375 L 48.546875 -2.71875 C 45.859375 -1.375 43.390625 -0.410156 41.140625 0.171875 C 38.890625 0.765625 36.78125 1.0625 34.8125 1.0625 Z M 34.8125 1.0625 "/></g></g></g><g fill="#f0f4f5" fill-opacity="1"><g transform="translate(1003.729902, 783.374913)"><g><path d="M 25.09375 1.1875 C 21.226562 1.101562 17.476562 0.429688 13.84375 -0.828125 C 10.21875 -2.085938 7.257812 -4.078125 4.96875 -6.796875 C 2.6875 -9.523438 1.546875 -13.097656 1.546875 -17.515625 C 1.546875 -21.859375 2.707031 -25.269531 5.03125 -27.75 C 7.363281 -30.238281 10.398438 -32.035156 14.140625 -33.140625 C 17.890625 -34.253906 21.816406 -34.8125 25.921875 -34.8125 L 43.796875 -34.8125 C 42.773438 -38.125 40.84375 -40.546875 38 -42.078125 C 35.15625 -43.617188 32.117188 -44.390625 28.890625 -44.390625 C 26.046875 -44.390625 23.28125 -43.816406 20.59375 -42.671875 C 17.914062 -41.535156 15.785156 -39.941406 14.203125 -37.890625 L 4.5 -46.296875 C 7.5 -50.953125 11.285156 -54.109375 15.859375 -55.765625 C 20.441406 -57.421875 25.140625 -58.25 29.953125 -58.25 C 33.585938 -58.25 37.160156 -57.710938 40.671875 -56.640625 C 44.179688 -55.578125 47.351562 -54 50.1875 -51.90625 C 53.03125 -49.820312 55.300781 -47.238281 57 -44.15625 C 58.695312 -41.082031 59.546875 -37.53125 59.546875 -33.5 L 59.546875 -12.078125 L 60.140625 0 L 46.40625 0 L 44.984375 -7.9375 C 43.015625 -4.851562 40.175781 -2.5625 36.46875 -1.0625 C 32.757812 0.433594 28.96875 1.1875 25.09375 1.1875 Z M 26.640625 -11.84375 C 29.003906 -11.84375 31.445312 -12.15625 33.96875 -12.78125 C 36.5 -13.414062 38.726562 -14.597656 40.65625 -16.328125 C 42.59375 -18.066406 43.757812 -20.515625 44.15625 -23.671875 L 25.453125 -23.671875 C 23.398438 -23.671875 21.445312 -23.15625 19.59375 -22.125 C 17.738281 -21.101562 16.8125 -19.609375 16.8125 -17.640625 C 16.8125 -16.222656 17.363281 -15.078125 18.46875 -14.203125 C 19.570312 -13.335938 20.894531 -12.726562 22.4375 -12.375 C 23.976562 -12.019531 25.378906 -11.84375 26.640625 -11.84375 Z M 26.640625 -11.84375 "/></g></g></g><g fill="#f0f4f5" fill-opacity="1"><g transform="translate(1070.267586, 783.374913)"><g><path d="M 4.734375 0 L 4.734375 -56.359375 L 17.765625 -56.359375 L 18.703125 -49.71875 C 20.753906 -52.957031 23.179688 -55.085938 25.984375 -56.109375 C 28.785156 -57.140625 31.289062 -57.65625 33.5 -57.65625 C 36.257812 -57.65625 39.296875 -57.101562 42.609375 -56 C 45.929688 -54.894531 48.695312 -52.960938 50.90625 -50.203125 L 44.15625 -40.015625 C 41.394531 -42.535156 38.160156 -43.796875 34.453125 -43.796875 C 30.660156 -43.796875 27.34375 -42.535156 24.5 -40.015625 C 21.664062 -37.492188 20.171875 -34.140625 20.015625 -29.953125 L 20.015625 0 Z M 4.734375 0 "/></g></g></g><g fill="#f0f4f5" fill-opacity="1"><g transform="translate(1120.585239, 783.374913)"><g><path d="M 29.953125 1.1875 C 25.054688 1.1875 20.492188 0.574219 16.265625 -0.640625 C 12.046875 -1.867188 8.578125 -3.921875 5.859375 -6.796875 C 3.140625 -9.679688 1.617188 -13.570312 1.296875 -18.46875 L 15.984375 -18.234375 C 16.140625 -16.335938 16.890625 -14.875 18.234375 -13.84375 C 19.578125 -12.820312 21.332031 -12.113281 23.5 -11.71875 C 25.664062 -11.320312 27.9375 -11.125 30.3125 -11.125 C 34.414062 -11.125 37.648438 -11.675781 40.015625 -12.78125 C 42.378906 -13.882812 43.5625 -15.304688 43.5625 -17.046875 C 43.5625 -18.460938 42.554688 -19.625 40.546875 -20.53125 C 38.535156 -21.445312 35.160156 -21.984375 30.421875 -22.140625 C 27.265625 -22.296875 24.046875 -22.609375 20.765625 -23.078125 C 17.492188 -23.554688 14.457031 -24.367188 11.65625 -25.515625 C 8.851562 -26.660156 6.601562 -28.316406 4.90625 -30.484375 C 3.21875 -32.648438 2.375 -35.550781 2.375 -39.1875 C 2.375 -42.738281 3.238281 -45.675781 4.96875 -48 C 6.707031 -50.332031 8.957031 -52.207031 11.71875 -53.625 C 14.476562 -55.050781 17.4375 -56.054688 20.59375 -56.640625 C 23.75 -57.234375 26.789062 -57.53125 29.71875 -57.53125 C 32.875 -57.53125 36.050781 -57.253906 39.25 -56.703125 C 42.445312 -56.148438 45.40625 -55.164062 48.125 -53.75 C 50.84375 -52.332031 53.070312 -50.378906 54.8125 -47.890625 C 56.550781 -45.398438 57.578125 -42.265625 57.890625 -38.484375 L 43.6875 -38 C 43.289062 -40.207031 42.203125 -41.820312 40.421875 -42.84375 C 38.648438 -43.875 36.738281 -44.546875 34.6875 -44.859375 C 32.632812 -45.179688 31.015625 -45.34375 29.828125 -45.34375 C 26.597656 -45.34375 23.738281 -44.867188 21.25 -43.921875 C 18.757812 -42.972656 17.515625 -41.4375 17.515625 -39.3125 C 17.515625 -38.039062 18.1875 -37.070312 19.53125 -36.40625 C 20.875 -35.738281 22.648438 -35.265625 24.859375 -34.984375 C 27.066406 -34.703125 29.4375 -34.484375 31.96875 -34.328125 C 35.28125 -34.097656 38.59375 -33.722656 41.90625 -33.203125 C 45.21875 -32.691406 48.234375 -31.820312 50.953125 -30.59375 C 53.679688 -29.375 55.816406 -27.582031 57.359375 -25.21875 C 58.898438 -22.851562 59.550781 -19.65625 59.3125 -15.625 C 58.757812 -11.832031 57.003906 -8.691406 54.046875 -6.203125 C 51.085938 -3.722656 47.457031 -1.867188 43.15625 -0.640625 C 38.851562 0.574219 34.453125 1.1875 29.953125 1.1875 Z M 29.953125 1.1875 "/></g></g></g></svg>