

<svg version="1.1" id="레이어_1" xmlns="http://www.w3.org/2000/svg" xmlns:xlink="http://www.w3.org/1999/xlink" x="0px" y="0px" viewBox="0 0 152.6 56.4" enable-background="new 0 0 152.6 56.4" xml:space="preserve">
<g>
	<g>
		<path fill="#969696" d="M3.3,29.8H0.8C0.3,29.8,0,29.4,0,29v-0.9c0-0.4,0.3-0.8,0.8-0.8h2.5v-5.7c0-4.7,2.7-6.9,6.3-6.9
			c2.2,0,3.8,1,4.5,1.7c0.3,0.2,0.3,0.7,0.2,0.9l-0.7,1.1c-0.2,0.4-0.7,0.4-1.1,0c-0.5-0.4-1.8-1.2-3-1.2c-1.9,0-3.4,1.3-3.4,4.4
			v5.7h4.7c0.4,0,0.8,0.3,0.8,0.8V29c0,0.4-0.3,0.8-0.8,0.8H6.1v13.1c0,0.4-0.4,0.8-0.8,0.8H4c-0.4,0-0.8-0.4-0.8-0.8V29.8z"></path>
		<path fill="#969696" d="M20.4,33.3c1.8,0,3.5,0.5,3.5,0.5c0-3-0.3-4.4-2.7-4.4c-2.2,0-4.2,0.6-4.9,0.9c-0.4,0.2-0.7,0-0.8-0.4
			l-0.3-1c-0.2-0.5,0.1-0.7,0.4-0.9c0.2-0.1,2.6-1.1,5.7-1.1c4.2,0,5.2,2.1,5.2,6.9v9.1c0,0.4-0.4,0.8-0.8,0.8H25
			c-0.4,0-0.6-0.2-0.7-0.6L24,42c-0.9,0.9-2.5,2.1-5.1,2.1c-2.9,0-5-2.1-5-5.4C13.9,35.6,16.2,33.3,20.4,33.3z M19.3,41.7
			c2,0,3.8-1.3,4.5-2.3v-3.2c-0.5-0.3-1.6-0.7-3.4-0.7c-2.3,0-3.9,1.1-3.9,3.3C16.5,40.4,17.6,41.7,19.3,41.7z"></path>
		<path fill="#969696" d="M32.2,28.1c0-0.4,0.4-0.8,0.8-0.8h0.8c0.4,0,0.6,0.2,0.7,0.5l0.4,1.3c0,0,2.3-2.2,5.7-2.2
			c4.7,0,6.3,3.1,6.3,7.4v8.6c0,0.4-0.4,0.8-0.8,0.8h-1.3c-0.4,0-0.8-0.4-0.8-0.8v-8.6c0-3.1-1.4-4.6-3.7-4.6C37.2,29.7,35,32,35,32
			v10.9c0,0.4-0.4,0.8-0.8,0.8H33c-0.4,0-0.8-0.4-0.8-0.8V28.1z"></path>
		<path fill="#969696" d="M53.5,29.8h-2.1c-0.4,0-0.8-0.4-0.8-0.8v-0.9c0-0.4,0.3-0.8,0.8-0.8h2.1v-4.5c0-0.4,0.4-0.8,0.8-0.8
			l1.3-0.1c0.4,0,0.7,0.4,0.7,0.8v4.6h4.7c0.4,0,0.8,0.3,0.8,0.8V29c0,0.4-0.3,0.8-0.8,0.8h-4.7v9.6c0,1.6,0.4,2,1.3,2
			c1,0,2.5-0.6,3-0.9c0.6-0.3,0.8-0.1,1,0.2l0.6,1c0.3,0.5,0.2,0.7-0.3,1c-0.6,0.4-2.8,1.4-4.7,1.4c-3.3,0-3.8-2-3.8-4.5V29.8z"></path>
		<path fill="#969696" d="M71.8,33.3c1.8,0,3.5,0.5,3.5,0.5c0-3-0.3-4.4-2.7-4.4c-2.2,0-4.2,0.6-4.9,0.9c-0.4,0.2-0.7,0-0.8-0.4
			l-0.3-1c-0.2-0.5,0.1-0.7,0.4-0.9c0.2-0.1,2.6-1.1,5.7-1.1c4.2,0,5.2,2.1,5.2,6.9v9.1c0,0.4-0.4,0.8-0.8,0.8h-0.8
			c-0.4,0-0.6-0.2-0.7-0.6L75.3,42c-0.9,0.9-2.5,2.1-5.1,2.1c-2.9,0-5-2.1-5-5.4C65.2,35.6,67.6,33.3,71.8,33.3z M70.7,41.7
			c2,0,3.8-1.3,4.5-2.3v-3.2c-0.5-0.3-1.6-0.7-3.4-0.7c-2.3,0-3.9,1.1-3.9,3.3C67.8,40.4,69,41.7,70.7,41.7z"></path>
		<path fill="#969696" d="M84.7,38.2c0,0-1.3-1.7-1.3-4.1c0-3.8,2.7-7.2,6.9-7.2h6.9c0.4,0,0.8,0.3,0.8,0.8v0.7
			c0,0.3-0.2,0.7-0.4,0.7l-2.2,0.4c0,0,1.8,1.3,1.8,4.6c0,3.7-2.7,6.9-6.9,6.9c-2.6,0-3.9-1-3.9-1s-1.8,0.8-1.8,2.5c0,1,0.7,2,2.2,2
			h5.9c3.4,0,6.1,1.7,6.1,5.2c0,3.4-3.5,6.6-8.5,6.6c-5.5,0-7.8-2.9-7.8-5.6c0-2.5,2-3.6,2.4-3.8v-0.1c-1.1-0.3-3-1.3-3-3.9
			C81.9,39.8,84.7,38.2,84.7,38.2z M90.4,53.7c2.7,0,5.5-1.5,5.5-3.9c0-0.5-0.2-2.7-3.1-2.7c-1.5,0-3,0-4.5,0c0,0-2.7,0.7-2.7,3.1
			C85.5,52.3,87.6,53.7,90.4,53.7z M94.4,34.1c0-2.7-1.6-4.6-4.1-4.6c-2.5,0-4.3,1.9-4.3,4.6c0,2.7,1.8,4.6,4.3,4.6
			C92.8,38.6,94.4,36.8,94.4,34.1z"></path>
		<path fill="#969696" d="M101.8,17.9c0-1.1,0.9-2,1.9-2c1.1,0,2,0.9,2,2c0,1.1-0.9,1.9-2,1.9C102.6,19.8,101.8,18.9,101.8,17.9z
			 M102.3,28.1c0-0.4,0.4-0.8,0.8-0.8h1.3c0.4,0,0.8,0.4,0.8,0.8v14.8c0,0.4-0.4,0.8-0.8,0.8h-1.3c-0.4,0-0.8-0.4-0.8-0.8V28.1z"></path>
		<path fill="#969696" d="M117.9,26.9c4.5,0,8.1,3.9,8.1,8.5c0,4.7-3.6,8.6-8.1,8.6c-4.5,0-8.1-3.9-8.1-8.6
			C109.8,30.9,113.4,26.9,117.9,26.9z M117.9,41.5c3,0,5.3-2.7,5.3-6c0-3.2-2.3-5.8-5.3-5.8c-3,0-5.3,2.6-5.3,5.8
			C112.6,38.8,114.9,41.5,117.9,41.5z"></path>
	</g>
	<g>
		<polygon fill="#F47E20" points="152.6,31.2 152.6,7.2 136.7,0 134,0.6 146.7,6.3 149.8,7.7 149.8,18.9 141.7,24.7 		"></polygon>
		<linearGradient id="SVGID_1_" gradientUnits="userSpaceOnUse" x1="133.9941" y1="15.4245" x2="146.7" y2="15.4245">
			<stop offset="0" style="stop-color:#A0C6E9"></stop>
			<stop offset="1" style="stop-color:#B8E3F9"></stop>
		</linearGradient>
		<polygon fill="url(#SVGID_1_)" points="146.7,6.3 134,0.6 134,20.2 134,30.3 137.8,27.6 141.7,24.7 		"></polygon>
		<polygon fill="#8F50A0" points="146.7,6.3 137.8,12.5 137.8,22.4 141.7,24.7 149.8,18.9 149.8,7.7 		"></polygon>
	</g>
</g>
</svg>
