<svg
   xmlns:svg="http://www.w3.org/2000/svg"
   xmlns="http://www.w3.org/2000/svg"
   xmlns:sodipodi="http://sodipodi.sourceforge.net/DTD/sodipodi-0.dtd"
   xmlns:inkscape="http://www.inkscape.org/namespaces/inkscape"
   width="512"
   height="166.015"
   viewBox="0 0 512 166.015"
   version="1.1"
   id="svg2"
   xml:space="preserve"><defs
     id="defs6"><clipPath
       clipPathUnits="userSpaceOnUse"
       id="clipPath18"><path
         d="M 0,595.276 H 841.89 V 0 H 0 Z"
         id="path16" /></clipPath><linearGradient
       x1="0"
       y1="0"
       x2="1"
       y2="0"
       gradientUnits="userSpaceOnUse"
       gradientTransform="matrix(24.052753,-24.052753,-24.052753,-24.052753,488.86111,137.95772)"
       spreadMethod="pad"
       id="linearGradient40"><stop
         style="stop-opacity:1;stop-color:#ffb700"
         offset="0"
         id="stop36" /><stop
         style="stop-opacity:1;stop-color:#e66473"
         offset="1"
         id="stop38" /></linearGradient><clipPath
       clipPathUnits="userSpaceOnUse"
       id="clipPath50"><path
         d="M 0,595.276 H 841.89 V 0 H 0 Z"
         id="path48" /></clipPath><linearGradient
       x1="0"
       y1="0"
       x2="1"
       y2="0"
       gradientUnits="userSpaceOnUse"
       gradientTransform="matrix(56.25647,-56.25647,-56.25647,-56.25647,314.54977,403.60336)"
       spreadMethod="pad"
       id="linearGradient332"><stop
         style="stop-opacity:1;stop-color:#eacc3b"
         offset="0"
         id="stop328" /><stop
         style="stop-opacity:1;stop-color:#e66473"
         offset="1"
         id="stop330" /></linearGradient><linearGradient
       x1="0"
       y1="0"
       x2="1"
       y2="0"
       gradientUnits="userSpaceOnUse"
       gradientTransform="matrix(47.253303,0,0,-47.253303,319.80319,351.85281)"
       spreadMethod="pad"
       id="linearGradient352"><stop
         style="stop-opacity:1;stop-color:#b2b2b2"
         offset="0"
         id="stop348" /><stop
         style="stop-opacity:1;stop-color:#ffffff"
         offset="1"
         id="stop350" /></linearGradient><clipPath
       clipPathUnits="userSpaceOnUse"
       id="clipPath362"><path
         d="M 0,595.276 H 841.89 V 0 H 0 Z"
         id="path360" /></clipPath></defs><g
     id="g8"
     inkscape:groupmode="layer"
     inkscape:label="KBS2_BI_RGB"
     transform="matrix(1.3333333,0,0,-1.3333333,0,793.70133)"><g
       id="g12"><g
         id="g14"
         clip-path="url(#clipPath18)"><g
           id="g20"
           transform="translate(341.0022,142.9392)" /></g></g><g
       id="g24"><g
         id="g26"><g
           id="g32"><g
             id="g34" /></g></g></g><path
       d="m 80.697613,486.71234 -37.538068,48.11745 36.179648,44.50389 h -25.48914 l -34.442499,-44.0516 v 44.0516 H 0 v -92.62134 h 19.407554 v 47.61979 l 33.7539,-47.61979 z"
       style="fill:#fab700;fill-opacity:1;fill-rule:nonzero;stroke:none;stroke-width:1.56501"
       id="path306" /><path
       d="m 218.28951,543.09972 c 5.62774,0 29.58944,-3.6793 29.58944,-27.94775 0,-25.67067 -24.17298,-28.43916 -24.17298,-28.43916 h -56.52463 v 15.0099 l 45.4773,-0.0297 c 13.18668,0 13.05681,12.81578 13.05681,12.81578 0,14.05056 -15.5827,13.47934 -15.5827,13.47934 H 192.719 c -7.99559,0 -28.60036,2.94062 -28.60036,24.63151 0,26.06976 25.53764,26.71298 25.53764,26.71298 h 51.75297 v -14.80804 l -42.48347,-0.0391 c -13.72504,0 -13.50751,-10.85483 -13.50751,-10.85483 0,0 0.12208,-10.5841 12.01293,-10.5841 z"
       style="fill:#fab700;fill-opacity:1;fill-rule:nonzero;stroke:none;stroke-width:1.56501"
       id="path310" /><path
       d="m 123.57358,501.78782 h -22.80361 v 26.04471 l 28.13713,-0.011 c 0,0 14.21489,-0.53367 14.21489,-12.85804 0,-12.31341 -10.65765,-13.17572 -19.54841,-13.17572 m -22.80361,62.51075 h 25.02904 c 0,0 13.60297,0.62288 13.60297,-10.88769 0,-9.90488 -8.55584,-10.55436 -11.3212,-10.74842 h -27.31081 z m 36.34711,-77.58639 c 13.67027,0 26.09636,10.19597 26.09636,25.86943 0,17.89107 -12.97855,23.4656 -12.97855,23.4656 0,0 10.31024,3.60577 9.3368,19.6564 -1.39912,23.2543 -27.17464,23.62679 -27.17464,23.62679 H 82.403148 v -92.57597 c 0,0 43.201802,-0.0422 54.713932,-0.0422"
       style="fill:#fab700;fill-opacity:1;fill-rule:nonzero;stroke:none;stroke-width:1.56501"
       id="path314" /><g
       id="g316"
       transform="matrix(1.5649991,0,0,1.5649991,-214.5462,-54.597684)"><g
         id="g318"><g
           id="g324"><g
             id="g326"><path
               d="m 302.899,375.475 c 0,-21.969 17.81,-39.78 39.779,-39.78 v 0 c 21.97,0 39.78,17.811 39.78,39.78 v 0 c 0,21.969 -17.81,39.78 -39.78,39.78 v 0 c -21.969,0 -39.779,-17.811 -39.779,-39.78"
               style="fill:url(#linearGradient332);stroke:none"
               id="path334" /></g></g></g></g><g
       id="g336"
       transform="matrix(1.5649991,0,0,1.5649991,-214.5462,-54.597684)"><g
         id="g338"><g
           id="g344"><g
             id="g346"><path
               d="m 354.994,358.498 c -2.213,-1.842 -4.727,-3.566 -7.532,-5.146 v 0 c -9.985,-5.623 -21.082,-8.141 -27.659,-8.144 v 0 h 48.673 c 4.267,3.64 7.756,8.162 10.18,13.29 v 0 z"
               style="fill:url(#linearGradient352);stroke:none"
               id="path354" /></g></g></g></g><g
       id="g356"
       transform="matrix(1.5649991,0,0,1.5649991,-214.5462,-54.597684)"><g
         id="g358"
         clip-path="url(#clipPath362)"><g
           id="g364"
           transform="translate(319.7908,345.208)"><path
             d="M 0,0 C 0.004,0 0.008,0 0.012,0 H -0.003 C -0.002,0 -0.001,0 0,0"
             style="fill:#ffffff;fill-opacity:1;fill-rule:nonzero;stroke:none"
             id="path366" /></g><g
           id="g368"
           transform="translate(354.3018,402.1619)"><path
             d="m 0,0 c -7.622,4.148 -17.254,3.787 -24.538,-0.922 -5.301,-3.426 -8.04,-7.971 -9.2,-10.376 -1.596,-3.305 -0.21,-7.277 3.095,-8.873 3.304,-1.595 7.277,-0.209 8.873,3.095 0.447,0.926 1.775,3.266 4.446,4.993 3.206,2.073 7.614,2.237 10.97,0.41 3.408,-1.854 5.209,-5.356 5.209,-10.124 0,-13.152 -23.743,-21.867 -33.366,-21.867 -10e-4,0 -0.002,0 -0.003,0 h -13.088 c 2.424,-5.128 5.913,-9.65 10.18,-13.29 h 2.908 0.015 c 6.576,0.003 17.674,2.522 27.659,8.144 2.806,1.58 5.319,3.303 7.532,5.146 7.443,6.196 11.453,13.754 11.453,21.867 C 12.145,-12.146 7.718,-4.201 0,0"
             style="fill:#ffffff;fill-opacity:1;fill-rule:nonzero;stroke:none"
             id="path370" /></g></g></g></g></svg>
