<?xml version="1.0" encoding="UTF-8"?>
<svg xmlns="http://www.w3.org/2000/svg" xmlns:xlink="http://www.w3.org/1999/xlink" width="298pt" height="99pt" viewBox="0 0 298 99" version="1.1">
<g id="surface1">
<path style=" stroke:none;fill-rule:evenodd;fill:rgb(100%,70.588235%,7.843137%);fill-opacity:1;" d="M 38.738281 26.511719 C 32.382812 26.511719 27.246094 31.675781 27.246094 38.046875 L 27.246094 61.285156 C 27.246094 67.652344 32.398438 72.816406 38.738281 72.816406 L 60.019531 72.816406 C 66.371094 72.816406 71.507812 67.652344 71.507812 61.285156 L 71.507812 38.046875 C 71.507812 31.675781 66.355469 26.511719 60.019531 26.511719 Z M 33.429688 16.269531 L 65.339844 16.269531 C 74.871094 16.269531 82.585938 24.015625 82.585938 33.554688 L 82.585938 65.632812 C 82.585938 75.183594 74.859375 82.917969 65.339844 82.917969 L 33.429688 82.917969 C 23.898438 82.917969 16.183594 75.171875 16.183594 65.632812 L 16.183594 33.554688 C 16.171875 24 23.898438 16.269531 33.429688 16.269531 Z M 34.015625 11.78125 C 21.808594 11.78125 11.921875 21.707031 11.921875 33.941406 L 11.921875 64.957031 C 11.921875 77.191406 21.808594 87.121094 34.015625 87.121094 L 64.742188 87.121094 C 76.945312 87.121094 86.835938 77.191406 86.835938 64.957031 L 86.835938 33.941406 C 86.835938 21.707031 76.945312 11.78125 64.742188 11.78125 Z M 31.339844 0.046875 L 67.632812 0.046875 C 84.945312 0.046875 98.972656 14.117188 98.972656 31.476562 L 98.972656 67.539062 C 98.972656 84.894531 84.933594 98.96875 67.632812 98.96875 L 31.339844 98.96875 C 14.023438 98.96875 0 84.894531 0 67.539062 L 0 31.476562 C 0 14.117188 14.039062 0.046875 31.339844 0.046875 Z M 31.339844 0.046875 "/>
<path style=" stroke:none;fill-rule:evenodd;fill:rgb(100%,70.588235%,7.843137%);fill-opacity:1;" d="M 147.667969 16.269531 L 192.847656 16.269531 L 192.847656 27.789062 L 141.386719 27.789062 C 136.550781 27.789062 132.613281 31.71875 132.613281 36.582031 L 132.613281 62.832031 C 132.613281 67.695312 136.535156 71.628906 141.386719 71.628906 L 192.832031 71.628906 L 192.832031 82.902344 L 153.25 82.917969 L 137.9375 82.917969 C 128.421875 82.917969 120.695312 75.171875 120.695312 65.632812 L 120.695312 33.554688 C 120.695312 24 128.40625 16.269531 137.9375 16.269531 Z M 135.863281 0.046875 L 192.847656 0.046875 L 192.847656 11.78125 L 138.539062 11.78125 C 126.332031 11.78125 116.445312 21.707031 116.445312 33.941406 L 116.445312 64.957031 C 116.445312 77.191406 126.332031 87.121094 138.539062 87.121094 L 192.847656 87.121094 L 192.847656 98.96875 L 135.863281 98.96875 C 118.5625 98.96875 104.523438 84.894531 104.523438 67.539062 L 104.523438 31.476562 C 104.523438 14.117188 118.546875 0.046875 135.863281 0.046875 Z M 135.863281 0.046875 "/>
<path style=" stroke:none;fill-rule:evenodd;fill:rgb(100%,70.588235%,7.843137%);fill-opacity:1;" d="M 232.789062 16.269531 L 264.34375 16.269531 C 273.988281 16.269531 281.816406 24.117188 281.816406 33.785156 L 281.816406 98.96875 L 270.324219 98.96875 L 270.324219 36.914062 C 270.324219 31.519531 265.960938 27.15625 260.59375 27.15625 L 237.050781 27.15625 C 231.671875 27.15625 227.320312 31.53125 227.320312 36.914062 L 227.320312 98.96875 L 215.328125 98.96875 L 215.328125 33.769531 C 215.328125 24.101562 223.140625 16.269531 232.789062 16.269531 Z M 230.667969 0.046875 L 266.644531 0.046875 C 283.960938 0.046875 298 14.117188 298 31.476562 L 298 98.96875 L 286.292969 98.96875 L 286.292969 34.15625 C 286.292969 21.921875 276.390625 11.996094 264.183594 11.996094 L 233.246094 11.996094 C 221.039062 11.996094 211.136719 21.921875 211.136719 34.15625 L 211.136719 98.96875 L 199.316406 98.96875 L 199.316406 31.476562 C 199.328125 14.117188 213.355469 0.046875 230.667969 0.046875 Z M 230.667969 0.046875 "/>
</g>
</svg>
