<?xml version="1.0" encoding="utf-8"?>
<!-- Generator: Adobe Illustrator 22.0.1, SVG Export Plug-In . SVG Version: 6.00 Build 0)  -->
<svg version="1.1" id="Layer_1" xmlns="http://www.w3.org/2000/svg" xmlns:xlink="http://www.w3.org/1999/xlink" x="0px" y="0px"
	 viewBox="0 0 1326.5 454.6" style="enable-background:new 0 0 1326.5 454.6;" xml:space="preserve">
<style type="text/css">
	.st0{fill:#FF4600;}
</style>
<path class="st0" d="M881,301.8c0,0-3.2,0-4.5,0c-8,21-33.3,41-65,41c-56,0-92-47-92-116c0-71,38-119,92-119c25,0,49.8,11.5,62,30
	c3,0,4.5,0,4.5,0V0.3h76v335h-73V301.8z M837.3,158.8c-26.3,0-39.7,22.8-39.7,67.5c0,40.3,13.3,64.2,40.5,64.2
	c24.7,0,40.5-19.3,40.5-65.8C878.7,178.7,863.2,158.8,837.3,158.8z M1079.3,115v220.3h-77c0,0,0-147.4,0-171.3
	c0-18.7-7.6-24.3-24.3-24.3c0-6.2,0-24.7,0-24.7H1079.3z M999.7,57.3c0,23,17.8,41.3,41.3,41.3s41-17.6,41-41.7
	c0-23.7-17.3-41.7-41.2-41.7C1017,15.3,999.7,33.1,999.7,57.3z M1113.3,178c0,50.4,45.8,61.8,83.7,71.5c35.2,9,50.6,10.2,50.6,22.8
	c0,9.6-8.3,15.5-27,15.5c-23,0-32-12.5-32-24c-42,0-42,0-75.5,0c0,44.5,34.3,78.5,102.5,78.5c64.8,0,111-30,111-71
	c0-51.8-49.8-62.6-90-74.5c-34.9-10.3-47.5-8.4-47.5-22c0-8,6.3-13,25-13c16.1,0,26.3,8.1,26.3,21.5c23.8,0,49.8,0,76.3,0
	c0-45.5-40.3-75-100.4-75C1154.1,108.3,1113.3,136,1113.3,178z M469,264.3c0-85,82.8-156.3,158-156.3c47.5,0,74.7,20.8,74.7,49.3
	c0,22.3-13.2,57.8-79.7,78c-28.3,8.6-49,11-69.3,10.9c-3.3,23,3.6,45.8,33.3,45.8c20,0,43.4-9.2,65.7-38c7.1,3.6,15.4,6.7,22.5,10.3
	c-31.4,52.6-71.4,78.4-124.5,78.4C507,342.7,469,313.1,469,264.3z M628.9,164c0-8.4-5.1-15.4-16.9-15.4c-25.3,0-45,29.5-57.3,75
	C614.9,213.3,628.9,181.2,628.9,164z M370.7,19c0,0,0,17.1,0,24.3c18.3,0,23.3,9,13.7,33.7C309.1,268.9,302,291.6,302,306.7
	c0,18.7,17.8,36,39.6,36c48.3,0,88.7-37.2,111.4-77c-6.9-4.1-15.7-8.4-23-11.8c-16,21.3-36.2,43.4-43.8,38.3
	c-4.7-3.2-2.1-8.7-2.1-8.7L492.3,0c0,0-20.8,0-28.8,0c-6.2,14.3-23.7,19-35.2,19C416.3,19,370.7,19,370.7,19z M257.5,19.3
	c52.5,0,81.5,24.3,81.5,62.5c0,46.2-37,109-139.5,114.5c-12.9,0.7-51.5,2.5-51.5,2.5s-27,63.6-33.9,84.9
	c-3.3,10.1-5.8,26.6,12.4,26.6c0,7.8,0,25,0,25H0c0,0,0-16,0-25c22.3,0.5,32.5-20.2,41.9-45.2c14.6-38.3,55.8-143.3,74.2-191.9
	c8.3-22.1,1.6-29.9-15.2-29.9c0-8.1,0-24,0-24S216,19.3,257.5,19.3z M206,43.3c0,0-38.3,105-48.3,130.3c74.3-4.7,99-65.2,99-92.7
	c0-25.7-18-37.7-36.3-37.7C212.7,43.3,206,43.3,206,43.3z M144.4,438.9h38.1v15.7h-60.5v-70h59.8v15.7h-37.4v11.3H180v14.9h-35.7
	V438.9z M203.5,454.6v-70h23.9l22.8,33.3c2.3,3.7,3.9,6.7,4.9,8.9h0.3v-9.6v-32.6H276v70h-22.7l-24.1-33.6c-0.3-0.6-0.9-1.5-1.6-2.8
	c-0.8-1.2-1.4-2.4-2-3.4c-0.6-1-1-1.8-1.2-2.6h-0.3v10v32.3H203.5z M360.9,384.6V402h-22.6v52.6h-22.5V402h-22.6v-17.4H360.9z
	 M400.6,438.9h38.1v15.7h-60.5v-70H438v15.7h-37.4v11.3h35.7v14.9h-35.7V438.9z M505.8,454.6l-12.9-24.5h-10.6v24.5h-22.5v-70h39.9
	c9.7,0,16.9,2,21.6,6.1c4.7,4,7,9.5,7,16.4c0,4.4-1.1,8.4-3.4,12c-2.3,3.6-5.7,6.3-10.2,8l15.5,27.5H505.8z M482.2,399.3V416h12.2
	c6.8,0,10.3-2.9,10.3-8.6c0-5.4-3.4-8.1-10.3-8.1H482.2z M609.4,384.6V402h-22.6v52.6h-22.5V402h-22.6v-17.4H609.4z M670.2,454.6
	l-4.8-13.9h-27.8l-4.8,13.9h-23.3l28.1-70h27.9l28,70H670.2z M642.5,426.3h17.7l-4.8-13.9c-2-5.7-3.4-10.2-3.9-13.5h-0.2
	c-0.5,3.5-1.8,8.1-3.9,13.5L642.5,426.3z M733.3,454.6h-22.5v-70h22.5V454.6z M756.5,454.6v-70h23.9l22.8,33.3
	c2.3,3.7,3.9,6.7,4.9,8.9h0.3v-9.6v-32.6H829v70h-22.7l-24.1-33.6c-0.3-0.6-0.9-1.5-1.6-2.8c-0.8-1.2-1.4-2.4-2-3.4
	c-0.6-1-1-1.8-1.2-2.6h-0.3v10v32.3H756.5z M852.3,454.6v-70h31.9l10.9,36.3c1.1,3.9,1.8,7,2,9.3h0.2c0.3-2.7,1-5.8,2.2-9.5
	l10.3-36.1h32.6v70h-20.6v-41.8c0-3.2,0.3-6.9,0.8-10.9h-0.4c-0.3,1.9-1.1,5.1-2.6,9.5l-13.2,43.3h-19.5l-13.3-43.2
	c-1.2-3.8-2.1-7-2.5-9.5h-0.3c0.4,2.8,0.6,6.4,0.6,10.8v41.8H852.3z M988.1,438.9h38.1v15.7h-60.5v-70h59.8v15.7h-37.4v11.3h35.7
	v14.9h-35.7V438.9z M1047.3,454.6v-70h23.9l22.8,33.3c2.3,3.7,3.9,6.7,4.9,8.9h0.3v-9.6v-32.6h20.6v70h-22.7l-24.1-33.6
	c-0.3-0.6-0.9-1.5-1.6-2.8c-0.8-1.2-1.4-2.4-2-3.4c-0.6-1-1-1.8-1.2-2.6h-0.3v10v32.3H1047.3z M1204.6,384.6V402H1182v52.6h-22.5
	V402H1137v-17.4H1204.6z"/>
</svg>
