<?xml version="1.0" encoding="UTF-8" standalone="no"?>
<!-- Created with Inkscape (http://www.inkscape.org/) -->

<svg
   width="221.3019mm"
   height="48.833591mm"
   viewBox="0 0 221.30189 48.833591"
   version="1.1"
   id="svg5"
   inkscape:version="1.2.2 (732a01da63, 2022-12-09)"
   xml:space="preserve"
   sodipodi:docname="SM Entertainment (Horizontal, 2017).svg"
   xmlns:inkscape="http://www.inkscape.org/namespaces/inkscape"
   xmlns:sodipodi="http://sodipodi.sourceforge.net/DTD/sodipodi-0.dtd"
   xmlns="http://www.w3.org/2000/svg"
   xmlns:svg="http://www.w3.org/2000/svg"><sodipodi:namedview
     id="namedview7"
     pagecolor="#626262"
     bordercolor="#000000"
     borderopacity="0.25"
     inkscape:showpageshadow="2"
     inkscape:pageopacity="0"
     inkscape:pagecheckerboard="true"
     inkscape:deskcolor="#383838"
     inkscape:document-units="mm"
     showgrid="false"
     showguides="false"
     inkscape:zoom="0.56632643"
     inkscape:cx="593.2974"
     inkscape:cy="54.738748"
     inkscape:window-width="1366"
     inkscape:window-height="705"
     inkscape:window-x="-8"
     inkscape:window-y="-8"
     inkscape:window-maximized="1"
     inkscape:current-layer="layer1" /><defs
     id="defs2"><clipPath
       clipPathUnits="userSpaceOnUse"
       id="clipPath9733-1"><rect
         style="fill:#00ffff;fill-opacity:1;stroke-width:4.41473"
         id="rect9735-6"
         width="33.203999"
         height="16.601999"
         x="-98.249306"
         y="90.438026" /></clipPath><clipPath
       clipPathUnits="userSpaceOnUse"
       id="clipPath9733-4"><rect
         style="fill:#00ffff;fill-opacity:1;stroke-width:4.41473"
         id="rect9735-64"
         width="33.203999"
         height="16.601999"
         x="-98.249306"
         y="90.438026" /></clipPath><clipPath
       clipPathUnits="userSpaceOnUse"
       id="clipPath9675-8"><rect
         style="fill:#ffff00;fill-opacity:1;stroke-width:3.32497"
         id="rect9677-5"
         width="63.307999"
         height="31.653999"
         x="-98.249306"
         y="170.1102" /></clipPath><clipPath
       clipPathUnits="userSpaceOnUse"
       id="clipPath9675-5"><rect
         style="fill:#ffff00;fill-opacity:1;stroke-width:3.32497"
         id="rect9677-8"
         width="63.307999"
         height="31.653999"
         x="-98.249306"
         y="170.1102" /></clipPath><clipPath
       clipPathUnits="userSpaceOnUse"
       id="clipPath9669-8"><rect
         style="fill:#ffff00;fill-opacity:1;stroke-width:2.39738"
         id="rect9671-2"
         width="63.348999"
         height="31.674501"
         x="-69.42157"
         y="181.70381" /></clipPath><clipPath
       clipPathUnits="userSpaceOnUse"
       id="clipPath9669-2"><rect
         style="fill:#ffff00;fill-opacity:1;stroke-width:2.39738"
         id="rect9671-7"
         width="63.348999"
         height="31.674501"
         x="-69.42157"
         y="181.70381" /></clipPath><clipPath
       clipPathUnits="userSpaceOnUse"
       id="clipPath9663-5"><rect
         style="fill:#ffff00;fill-opacity:1;stroke-width:2.8421"
         id="rect9665-1"
         width="63.423"
         height="31.7115"
         x="-39.317833"
         y="50.889236" /></clipPath><clipPath
       clipPathUnits="userSpaceOnUse"
       id="clipPath9663-0"><rect
         style="fill:#ffff00;fill-opacity:1;stroke-width:2.8421"
         id="rect9665-3"
         width="63.423"
         height="31.7115"
         x="-39.317833"
         y="50.889236" /></clipPath><clipPath
       clipPathUnits="userSpaceOnUse"
       id="clipPath9657-1"><rect
         style="fill:#ffff00;fill-opacity:1;stroke-width:3.46882"
         id="rect9659-0"
         width="63.707001"
         height="31.8535"
         x="-10.448813"
         y="59.511024" /></clipPath><clipPath
       clipPathUnits="userSpaceOnUse"
       id="clipPath9657-6"><rect
         style="fill:#ffff00;fill-opacity:1;stroke-width:3.46882"
         id="rect9659-1"
         width="63.707001"
         height="31.8535"
         x="-10.448813"
         y="59.511024" /></clipPath><clipPath
       clipPathUnits="userSpaceOnUse"
       id="clipPath9639-9"><rect
         style="fill:#ffff00;fill-opacity:1;stroke-width:2.1911"
         id="rect9641-8"
         width="20.035"
         height="20.035"
         x="19.728737"
         y="138.68016" /></clipPath><clipPath
       clipPathUnits="userSpaceOnUse"
       id="clipPath9639-98"><rect
         style="fill:#ffff00;fill-opacity:1;stroke-width:2.1911"
         id="rect9641-2"
         width="20.035"
         height="20.035"
         x="19.728737"
         y="138.68016" /></clipPath><clipPath
       clipPathUnits="userSpaceOnUse"
       id="clipPath9645-7"><rect
         style="fill:#ffff00;fill-opacity:1;stroke-width:3.19016"
         id="rect9647-2"
         width="23.025499"
         height="23.025499"
         x="48.881813"
         y="166.29971" /></clipPath><clipPath
       clipPathUnits="userSpaceOnUse"
       id="clipPath9639-5"><rect
         style="fill:#ffff00;fill-opacity:1;stroke-width:2.1911"
         id="rect9641-1"
         width="20.035"
         height="20.035"
         x="19.728737"
         y="138.68016" /></clipPath><clipPath
       clipPathUnits="userSpaceOnUse"
       id="clipPath9645-8"><rect
         style="fill:#ffff00;fill-opacity:1;stroke-width:3.19016"
         id="rect9647-0"
         width="23.025499"
         height="23.025499"
         x="48.881813"
         y="166.29971" /></clipPath><clipPath
       clipPathUnits="userSpaceOnUse"
       id="clipPath9791-2"><rect
         style="fill:#00ffff;fill-opacity:1;stroke-width:2.68123"
         id="rect9793-3"
         width="37.719002"
         height="18.859501"
         x="85.031639"
         y="180.25784" /></clipPath><clipPath
       clipPathUnits="userSpaceOnUse"
       id="clipPath9791-1"><rect
         style="fill:#00ffff;fill-opacity:1;stroke-width:2.68123"
         id="rect9793-8"
         width="37.719002"
         height="18.859501"
         x="85.031639"
         y="180.25784" /></clipPath></defs><g
     inkscape:label="Layer 1"
     inkscape:groupmode="layer"
     id="layer1"
     transform="translate(19.389188,-172.27435)"><path
       id="rect403"
       style="fill:#000000;fill-opacity:1;stroke-width:0.417202"
       d="m 1.9784412,172.27844 a 8.5744315,8.5744315 0 0 0 -0.5878549,0.002 8.5744315,8.5744315 0 0 0 -5.7415321,2.50458 8.5744315,8.5744315 0 0 0 -9.691e-4,8.3e-4 8.5744315,8.5744315 0 0 0 -8.344e-4,9.7e-4 8.5744315,8.5744315 0 0 0 -1.1181206,1.37991 8.5362069,8.5362069 0 0 0 -0.00807,-2.7e-4 8.5362069,8.5362069 0 0 0 -6.0360171,2.50027 8.5362069,8.5362069 0 0 0 0,12.07203 L 5.1416795,207.39505 5.9746364,206.56209 -10.681996,189.9056 a 7.3582615,7.3582615 0 0 1 1.4e-4,-10.40612 7.3582615,7.3582615 0 0 1 4.5584483,-2.12315 8.5744315,8.5744315 0 0 0 1.7696855,9.53338 8.5744315,8.5744315 0 0 0 0.0018,0.002 h 1.391e-4 l 17.1952441,17.19524 a 7.3483014,7.3483014 0 0 1 0,10.39207 7.3483014,7.3483014 0 0 1 -5.4012821,2.14499 8.5207292,8.5207292 0 0 0 -1.4674118,-10.08173 l -0.833096,0.83282 v 1.4e-4 a 7.3426486,7.3426486 0 0 1 0,1.4e-4 7.3426486,7.3426486 0 0 1 1.0225561,9.10215 7.3483014,7.3483014 0 0 1 -3.712695,-1.99851 L -11.760199,200.28745 a 4.4689815,4.4689815 0 0 0 0,-1.4e-4 4.4689815,4.4689815 0 0 0 -3.327098,-1.30577 4.4689815,4.4689815 0 0 0 -2.992969,1.30577 4.4689815,4.4689815 0 0 0 0,6.32007 l 12.0048445,12.00484 h 1.392e-4 a 8.5207292,8.5207292 0 0 0 0.0018,0.002 8.5207292,8.5207292 0 0 0 12.0482447,-0.002 8.5207292,8.5207292 0 0 0 0.7336363,-0.83699 8.5262477,8.5262477 0 0 0 6.9680153,-2.44337 8.5262477,8.5262477 0 0 0 0,-12.05784 v -1.4e-4 l -17.1952452,-17.1951 a 7.3964855,7.3964855 0 0 1 0,-1.4e-4 7.3964855,7.3964855 0 0 1 -1.297426,-8.70307 7.3582615,7.3582615 0 0 1 4.54036573,2.12385 h 1.3917e-4 l 10.6740333,10.67417 v 1.4e-4 a 5.3930231,5.3930882 45 0 0 7.626952,0 l 1.735605,-1.7356 1.443625,1.44362 0.0031,-0.003 a 6.1979464,6.1979464 0 0 0 4.379562,1.81837 6.1979464,6.1979464 0 0 0 4.382482,-1.81573 l 2.69e-4,2.7e-4 10.910233,-10.91023 v 22.89059 a 5.0766635,5.0766635 0 0 0 5.076613,5.07661 5.0766635,5.0766635 0 0 0 5.076752,-5.07661 h 1.4e-4 V 182.1095 h -2.69e-4 a 6.1979464,6.1979464 0 0 0 -6.197794,-6.19126 6.1979464,6.1979464 0 0 0 -2.931207,0.74045 5.5846122,5.5846122 0 0 0 -1.482157,-2.64979 5.5846122,5.5846122 0 0 0 -3.774875,-1.63323 5.5846122,5.5846122 0 0 0 -0.382815,10e-4 5.5846122,5.5846122 0 0 0 -3.73996,1.63183 h -1.39e-4 L 19.760845,186.77228 7.7742237,174.78565 a 8.5744315,8.5744315 0 0 0 -5.7957825,-2.50721 z m -0.036724,1.17738 a 7.3964855,7.3964855 0 0 1 4.9995492,2.16279 h 1.391e-4 l 11.9864825,11.98662 -1.735604,1.73547 a 4.2149818,4.2150329 45 0 1 -5.961039,1.4e-4 v -1.4e-4 L 0.55707296,178.66653 a 8.5362069,8.5362069 0 0 0 -4.65930006,-2.38397 7.3964855,7.3964855 0 0 1 0.5834035,-0.66395 7.3964855,7.3964855 0 0 1 4.9535059,-2.16126 7.3964855,7.3964855 0 0 1 0.5070353,-0.002 z m 34.6689768,0.0974 a 4.4066661,4.4066661 0 0 1 2.978641,1.28852 4.4066661,4.4066661 0 0 1 1.252635,2.54102 6.1979464,6.1979464 0 0 0 -0.387406,0.35249 l -0.0021,-0.002 -11.315582,11.31559 0.01029,0.0103 a 5.0198655,5.0198655 0 0 1 -3.560097,1.48689 5.0198655,5.0198655 0 0 1 -3.559959,-1.48675 l 0.01029,-0.0104 -1.443625,-1.44362 12.763519,-12.76338 v -1.4e-4 a 4.4066661,4.4066661 0 0 1 2.951238,-1.28755 4.4066661,4.4066661 0 0 1 0.302135,-9.7e-4 z m 8.224822,3.54313 a 5.0198655,5.0198655 0 0 1 5.019719,5.01318 h 2.69e-4 v 19.75268 h -1.4e-4 a 3.8987169,3.8987169 0 0 1 -3.898666,3.89867 3.8987169,3.8987169 0 0 1 -3.898678,-3.89867 v -23.9247 a 5.0198655,5.0198655 0 0 1 2.777496,-0.84116 z m -59.878718,23.06239 a 3.2910355,3.2910355 0 0 1 2.450185,0.96162 l 14.2115947,14.2116 a 8.5262477,8.5262477 0 0 0 3.7702844,2.18769 7.3426486,7.3426486 0 0 1 -0.2471886,0.25971 7.3426486,7.3426486 0 0 1 -10.3840004,0 h -1.389e-4 L -17.24717,205.77449 a 3.2910355,3.2910355 0 0 1 0,-4.65416 3.2910355,3.2910355 0 0 1 2.203968,-0.96162 z" /><path
       id="path5831"
       style="display:inline;fill:#000000;fill-opacity:1;stroke-width:1.88928"
       d="m 45.996201,209.7096 a 5.4580963,5.4580963 0 0 0 -5.458178,5.45804 5.4580963,5.4580963 0 0 0 5.458172,5.45818 5.4580963,5.4580963 0 0 0 5.458043,-5.45818 5.4580963,5.4580963 0 0 0 -5.458037,-5.45804 z m -8e-6,1.17084 a 4.2872831,4.2872831 0 0 1 4.287197,4.2872 4.2872831,4.2872831 0 0 1 -4.287192,4.28734 4.2872831,4.2872831 0 0 1 -4.287332,-4.28734 4.2872831,4.2872831 0 0 1 4.287327,-4.2872 z" /><g
       id="g11052"
       transform="matrix(0.5564853,0,0,0.55268899,134.5429,28.37449)"
       style="fill:#000000"><path
         d="m -119.53494,287.17719 c 3.40055,0 7.57521,-1.63608 7.57521,-5.76787 0,-4.57547 -4.89348,-5.54602 -7.85168,-6.21154 -3.12409,-0.72098 -4.3129,-1.30332 -4.3129,-2.68982 0,-1.66381 1.96293,-2.30159 4.11937,-2.30159 2.62644,0 4.58937,0.99828 5.9717,2.05202 l 1.65881,-2.49571 c -1.76939,-1.55289 -4.67231,-2.63436 -7.65815,-2.63436 -3.67702,0 -7.49228,1.91337 -7.49228,5.46283 0,1.55289 0.74647,3.4108 3.31762,4.49228 1.74174,0.74871 3.17937,0.94282 5.087,1.46969 1.65881,0.44369 3.75996,0.80418 3.75996,2.80074 0,1.33105 -1.10587,2.63436 -4.31289,2.63436 -3.53879,0 -5.6676,-1.88564 -6.57993,-2.80074 l -2.15645,2.32933 c 0.88469,0.99828 3.81525,3.66038 8.87461,3.66038 z"
         style="font-weight:500;font-size:27.6884px;font-family:'SMTOWN(OTF)';-inkscape-font-specification:'SMTOWN(OTF) Medium';fill:#000000;stroke-width:3.2245"
         id="path10991" /><path
         d="m -91.633049,267.46108 -6.414049,9.04001 -6.413982,-9.04001 h -3.06879 v 19.38335 h 3.31761 V 273.2844 l 6.19281,8.59633 6.220521,-8.56859 v 13.53229 h 3.345258 v -19.38335 z"
         style="font-weight:500;font-size:27.6884px;font-family:'SMTOWN(OTF)';-inkscape-font-specification:'SMTOWN(OTF) Medium';fill:#000000;stroke-width:3.2245"
         id="path10993" /><path
         d="m -127.09728,319.82693 h 14.70807 v -3.16123 h -11.33517 v -5.49057 h 8.29403 v -3.16122 h -8.29403 v -4.43682 h 11.19694 v -3.13351 h -14.56984 z"
         style="font-weight:500;font-size:27.6884px;font-family:'SMTOWN(OTF)';-inkscape-font-specification:'SMTOWN(OTF) Medium';fill:#000000;stroke-width:3.2245"
         id="path10995" /><path
         d="m -107.89169,319.82693 h 3.31761 v -13.64321 l 10.478068,13.64321 h 3.041145 v -19.38335 h -3.317611 l -0.02765,13.58776 -10.422772,-13.58776 h -3.06879 z"
         style="font-weight:500;font-size:27.6884px;font-family:'SMTOWN(OTF)';-inkscape-font-specification:'SMTOWN(OTF) Medium';fill:#000000;stroke-width:3.2245"
         id="path10997" /><path
         d="m -80.931595,319.82693 h 3.400554 v -16.22211 h 6.082284 v -3.16124 h -15.565128 v 3.16124 h 6.08229 z"
         style="font-weight:500;font-size:27.6884px;font-family:'SMTOWN(OTF)';-inkscape-font-specification:'SMTOWN(OTF) Medium';fill:#000000;stroke-width:3.2245"
         id="path10999" /><path
         d="m -67.367891,319.82693 h 14.708078 v -3.16123 h -11.335172 v -5.49057 h 8.294027 v -3.16122 h -8.294027 v -4.43682 h 11.196939 v -3.13351 h -14.569845 z"
         style="font-weight:500;font-size:27.6884px;font-family:'SMTOWN(OTF)';-inkscape-font-specification:'SMTOWN(OTF) Medium';fill:#000000;stroke-width:3.2245"
         id="path11001" /><path
         d="m -48.176305,319.82693 h 3.372906 v -7.70897 h 4.782888 l 4.506422,7.70897 h 3.75996 l -4.782888,-7.98627 c 2.792321,-0.80418 3.75996,-3.38307 3.75996,-5.57375 0,-2.60663 -1.327044,-5.82333 -5.529353,-5.82333 h -9.869895 z m 3.372906,-10.8702 v -5.32418 h 6.30346 c 1.548221,0 2.349976,1.08148 2.349976,2.63436 0,1.60835 -0.829403,2.68982 -2.488208,2.68982 z"
         style="font-weight:500;font-size:27.6884px;font-family:'SMTOWN(OTF)';-inkscape-font-specification:'SMTOWN(OTF) Medium';fill:#000000;stroke-width:3.2245"
         id="path11003" /><path
         d="m -24.129014,319.82693 h 3.400551 v -16.22211 h 6.082288 v -3.16124 h -15.565128 v 3.16124 h 6.082287 z"
         style="font-weight:500;font-size:27.6884px;font-family:'SMTOWN(OTF)';-inkscape-font-specification:'SMTOWN(OTF) Medium';fill:#000000;stroke-width:3.2245"
         id="path11005" /><path
         d="m -14.712322,319.82693 h 3.400552 l 2.1011542,-4.52 h 9.8422417 l 2.0458611,4.52 h 3.5940788 l -9.0128439,-19.49426 h -2.9582013 z m 6.9393374,-7.59805 3.5387814,-7.59805 3.45584368,7.59805 z"
         style="font-weight:500;font-size:27.6884px;font-family:'SMTOWN(OTF)';-inkscape-font-specification:'SMTOWN(OTF) Medium';fill:#000000;stroke-width:3.2245"
         id="path11007" /><path
         d="M 9.6636436,319.82693 H 13.036548 V 300.44358 H 9.6636436 Z"
         style="font-weight:500;font-size:27.6884px;font-family:'SMTOWN(OTF)';-inkscape-font-specification:'SMTOWN(OTF) Medium';fill:#000000;stroke-width:3.2245"
         id="path11009" /><path
         d="m 18.772487,319.82693 h 3.317611 v -13.64321 l 10.478123,13.64321 h 3.041143 v -19.38335 h -3.317611 l -0.02765,13.58776 -10.422829,-13.58776 h -3.068791 z"
         style="font-weight:500;font-size:27.6884px;font-family:'SMTOWN(OTF)';-inkscape-font-specification:'SMTOWN(OTF) Medium';fill:#000000;stroke-width:3.2245"
         id="path11011" /><path
         d="m 56.811413,300.44358 -6.414048,9.04002 -6.414048,-9.04002 h -3.068792 v 19.38335 h 3.317612 v -13.56002 l 6.192875,8.59633 6.220521,-8.5686 v 13.53229 h 3.345259 v -19.38335 z"
         style="font-weight:500;font-size:27.6884px;font-family:'SMTOWN(OTF)';-inkscape-font-specification:'SMTOWN(OTF) Medium';fill:#000000;stroke-width:3.2245"
         id="path11013" /><path
         d="M 65.427566,319.82693 H 80.135644 V 316.6657 H 68.800472 v -5.49057 H 77.0945 v -3.16122 h -8.294028 v -4.43682 H 79.99741 v -3.13351 H 65.427566 Z"
         style="font-weight:500;font-size:27.6884px;font-family:'SMTOWN(OTF)';-inkscape-font-specification:'SMTOWN(OTF) Medium';fill:#000000;stroke-width:3.2245"
         id="path11015" /><path
         d="m 84.68585,319.82693 h 3.317612 v -13.64321 l 10.478121,13.64321 h 3.041067 v -19.38335 h -3.317537 l -0.0276,13.58776 -10.422825,-13.58776 h -3.068791 z"
         style="font-weight:500;font-size:27.6884px;font-family:'SMTOWN(OTF)';-inkscape-font-specification:'SMTOWN(OTF) Medium';fill:#000000;stroke-width:3.2245"
         id="path11017" /><path
         d="m 111.58022,319.82693 h 3.40054 v -16.22211 h 6.08229 v -3.16124 h -15.56513 v 3.16124 h 6.0823 z"
         style="font-weight:500;font-size:27.6884px;font-family:'SMTOWN(OTF)';-inkscape-font-specification:'SMTOWN(OTF) Medium';fill:#000000;stroke-width:3.2245"
         id="path11019" /></g></g></svg>
