<svg xmlns="http://www.w3.org/2000/svg" width="116.4" height="25" fill="none"><path fill="#141414" d="M115.999 3.806a2.3 2.3 0 0 0-.84-.803 2.3 2.3 0 0 0-1.15-.298q-.63-.001-1.158.298-.53.299-.84.803-.31.506-.311 1.088a2.14 2.14 0 0 0 1.14 1.913q.529.283 1.166.282.622 0 1.151-.288.528-.286.839-.787t.311-1.122a2 2 0 0 0-.308-1.086m-.428 1.964q-.244.402-.66.632-.413.23-.9.23-.493 0-.912-.224a1.7 1.7 0 0 1-.904-1.514q-.001-.465.244-.865a1.76 1.76 0 0 1 .66-.632q.42-.233.912-.233.47 0 .887.233t.668.627q.25.391.251.855 0 .49-.246.891"/><path fill="#141414" d="M114.918 4.503q0-.376-.212-.547-.211-.172-.64-.173h-.907v2.22h.477v-.759h.368l.476.76h.55l-.534-.827q.422-.152.422-.674m-.58.264c-.06.05-.163.073-.319.073h-.381v-.65h.381q.23 0 .319.07.089.069.088.243-.004.19-.088.264M8.004 11.46l-1.695-.635a19 19 0 0 1-1.513-.603q-.547-.256-.547-.729.001-.45.386-.676c.26-.15.614-.225 1.073-.225q.773 0 1.428.246.653.244 1.362.718l1.845-2.213a6 6 0 0 0-2.2-1.353 7.4 7.4 0 0 0-2.435-.43q-1.14 0-2.091.33a5.2 5.2 0 0 0-1.643.89A4.1 4.1 0 0 0 .902 8.093 3.46 3.46 0 0 0 .516 9.7q0 .717.225 1.31.226.597.611 1.055.386.462.902.798.513.339 1.073.544l1.738.697q.45.164.796.298.342.133.59.278.246.144.376.308t.13.41q0 .45-.376.696-.377.246-1.212.246-.774 0-1.64-.357a7 7 0 0 1-1.62-.933L0 17.463a7.4 7.4 0 0 0 2.542 1.444 8.7 8.7 0 0 0 2.736.46q1.31 0 2.316-.346 1.008-.351 1.705-.933a3.95 3.95 0 0 0 1.062-1.363 3.8 3.8 0 0 0 .366-1.62q0-1.391-.708-2.274-.706-.88-2.015-1.371M14.015 8.755h3.69v10.366h3.689V8.755h3.692V5.806H14.015zM55.269 12.483q.61-.941.611-2.376 0-1.25-.45-2.08a3.6 3.6 0 0 0-1.213-1.321q-.763-.493-1.78-.697a10.8 10.8 0 0 0-2.135-.205h-5.278v13.499h3.69v-4.648h1.417l2.404 4.467h4.12l-3.027-5.162a4.26 4.26 0 0 0 1.64-1.477m-5.227-.614h-1.329V8.592h1.33q1.092 0 1.663.329.567.326.567 1.19 0 1.756-2.23 1.758M67.775 11.406l-1.694-.635a19 19 0 0 1-1.513-.604q-.548-.255-.547-.728.001-.45.386-.676.387-.226 1.073-.226.772 0 1.427.246.654.245 1.363.718l1.845-2.213a6 6 0 0 0-2.2-1.352 7.4 7.4 0 0 0-2.435-.43q-1.14 0-2.091.329a5.2 5.2 0 0 0-1.643.891 4.1 4.1 0 0 0-1.073 1.311 3.5 3.5 0 0 0-.386 1.61q0 .717.226 1.31.226.596.611 1.055.385.46.902.798.514.338 1.072.544l1.739.697q.45.162.795.298.342.132.591.277.246.145.376.309.129.163.13.409 0 .451-.376.697-.378.245-1.213.246-.773 0-1.64-.358a7 7 0 0 1-1.62-.932l-2.103 2.417a7.4 7.4 0 0 0 2.542 1.443 8.7 8.7 0 0 0 2.736.461q1.31 0 2.316-.347 1.008-.35 1.705-.932a3.95 3.95 0 0 0 1.062-1.363 3.76 3.76 0 0 0 .365-1.62q0-1.391-.707-2.275-.712-.883-2.02-1.375M82.282 10.709h-4.161V5.752h-3.692v13.315h3.692v-5.285h4.161v5.285h3.69V5.752h-3.69zM94.242 5.752h-3.69v13.315h3.69zM107.778 6.705a5.1 5.1 0 0 0-1.804-.738 10.6 10.6 0 0 0-2.168-.215h-5.107v13.315h3.689V14.85h1.503q1.093 0 2.101-.277a5.4 5.4 0 0 0 1.78-.84 4.1 4.1 0 0 0 1.234-1.445q.462-.882.461-2.11 0-1.248-.461-2.098a3.75 3.75 0 0 0-1.228-1.374m-2.436 4.864q-.526.49-1.619.492h-1.33V8.537h1.244q1.073.002 1.653.368.578.369.578 1.27 0 .904-.526 1.394M28.304 23.959l3.529-2.91 1.275.858-.936 2.767 2.49-1.715 2.405 1.715-.936-2.767 1.239-.865 3.627 2.917v-6.216l-1.212-1.023V7.633L36.012 0l-2.73.008-3.83 7.625v9.097l-1.161 1.013zm6.36-20.529 1.85 4.006h-3.74zm.892 16.767-.894-2.788-.943 2.79-1.034-.002V10.056h3.908v10.14z"/></svg>