<svg xmlns="http://www.w3.org/2000/svg" viewBox="0 0 1500 1500"><path fill="#cc001e" d="M 1113.945312 1499.894531 C 1047.777344 1499.894531 985.628906 1474.097656 938.792969 1427.335938 L 611.6875 1100.226562 L 540.910156 1171.003906 C 468.726562 1243.1875 365.3125 1263.78125 270.972656 1224.675781 C 176.707031 1185.648438 118.125 1097.996094 118.125 995.925781 L 118.125 504.074219 C 118.125 402.003906 176.707031 314.351562 271.046875 275.25 C 365.3125 236.21875 468.800781 256.738281 540.984375 328.921875 L 611.761719 399.699219 L 938.867188 72.589844 C 985.554688 25.902344 1047.777344 0.105469 1113.945312 0.105469 C 1216.015625 0.105469 1303.667969 58.6875 1342.769531 153.027344 C 1381.800781 247.296875 1361.28125 350.78125 1289.09375 422.964844 L 961.988281 750.074219 L 1289.09375 1077.183594 C 1361.28125 1149.367188 1381.875 1252.777344 1342.769531 1347.121094 C 1303.667969 1441.3125 1216.015625 1499.894531 1113.945312 1499.894531 Z M 705.65625 1006.257812 L 1032.761719 1333.367188 C 1054.46875 1355.074219 1083.242188 1366.96875 1113.945312 1366.96875 C 1161.96875 1366.96875 1201.59375 1340.503906 1219.957031 1296.121094 C 1238.320312 1251.738281 1229.027344 1204.976562 1195.050781 1171.078125 L 867.945312 843.96875 Z M 367.097656 388.769531 C 352.15625 388.769531 336.839844 391.816406 321.824219 398.0625 C 277.441406 416.425781 250.976562 456.050781 250.976562 504.074219 L 250.976562 995.925781 C 250.976562 1043.949219 277.441406 1083.574219 321.824219 1101.9375 C 366.207031 1120.300781 412.96875 1111.007812 446.867188 1077.03125 L 517.640625 1006.257812 L 436.460938 925.078125 C 389.699219 878.316406 363.902344 816.089844 363.902344 749.925781 C 363.902344 683.761719 389.699219 621.609375 436.460938 574.773438 L 517.640625 493.59375 L 446.867188 422.816406 C 424.492188 400.441406 396.390625 388.769531 367.097656 388.769531 Z M 692.867188 668.816406 C 648.039062 623.988281 575.40625 623.988281 530.578125 668.816406 C 508.871094 690.527344 496.976562 719.296875 496.976562 750 C 496.976562 780.628906 508.945312 809.472656 530.578125 831.183594 C 575.40625 876.011719 648.039062 876.011719 692.867188 831.183594 C 737.695312 786.351562 737.695312 713.644531 692.867188 668.816406 Z M 705.65625 493.667969 L 867.945312 655.957031 L 1195.050781 328.847656 C 1229.027344 294.875 1238.320312 248.113281 1219.957031 203.804688 C 1201.59375 159.421875 1161.96875 132.957031 1113.945312 132.957031 C 1083.316406 132.957031 1054.46875 144.925781 1032.761719 166.558594 Z M 705.65625 493.667969 " fill-opacity="1" fill-rule="nonzero"/></svg>